<?xml version="1.0" encoding="utf-8"?>
<!-- Generator: Adobe Illustrator 16.0.0, SVG Export Plug-In . SVG Version: 6.00 Build 0)  -->
<!DOCTYPE svg PUBLIC "-//W3C//DTD SVG 1.1//EN" "http://www.w3.org/Graphics/SVG/1.1/DTD/svg11.dtd">
<svg version="1.1" id="Layer_1" xmlns="http://www.w3.org/2000/svg" xmlns:xlink="http://www.w3.org/1999/xlink" x="0px" y="0px"
	 width="100px" height="100px" viewBox="0 0 100 100" enable-background="new 0 0 100 100" xml:space="preserve">
<g display="none">
	<path display="inline" fill="#231F20" d="M68.945,34.463h-37.89c-1.184,0-2.145,0.993-2.145,2.22v26.633
		c0,1.224,0.961,2.222,2.145,2.222h37.89c1.182,0,2.145-0.998,2.145-2.222V36.683C71.09,35.456,70.127,34.463,68.945,34.463z
		 M35.895,37.39h28.21c0.104,0,0.199,0.074,0.229,0.178c0.031,0.107-0.01,0.217-0.098,0.278L49.893,47.999
		c-0.041,0.025-0.086,0.039-0.133,0.039c-0.045,0-0.09-0.014-0.129-0.039L35.763,37.846c-0.087-0.062-0.126-0.171-0.098-0.278
		C35.696,37.464,35.792,37.39,35.895,37.39z M68.289,62.357c0,0.137-0.107,0.248-0.238,0.248H31.949
		c-0.13,0-0.238-0.111-0.238-0.248V39.186c0-0.095,0.05-0.175,0.128-0.222c0.078-0.039,0.172-0.034,0.245,0.016l16.851,12.36
		l0.826,0.473l0.844-0.483L67.917,38.98c0.074-0.05,0.168-0.055,0.246-0.016c0.078,0.047,0.127,0.127,0.127,0.222L68.289,62.357
		L68.289,62.357z"/>
</g>
<g display="none">
	<g display="inline">
		<path fill="#231F20" d="M63.82,36.175c-3.803-3.791-8.454-5.712-13.819-5.712c-5.376,0-10.026,1.924-13.822,5.716
			c-3.794,3.793-5.718,8.441-5.718,13.822c0,5.384,1.924,10.032,5.718,13.823c3.794,3.791,8.443,5.713,13.822,5.713
			c5.375,0,10.022-1.922,13.822-5.715c3.792-3.793,5.716-8.441,5.716-13.822C69.539,44.624,67.615,39.972,63.82,36.175z
			 M61.702,61.705c-3.263,3.258-7.089,4.837-11.701,4.837c-4.618,0-8.445-1.583-11.703-4.837c-3.257-3.256-4.838-7.084-4.838-11.699
			c0-4.626,1.583-8.453,4.838-11.705c3.258-3.255,7.085-4.839,11.703-4.839c4.608,0,8.438,1.586,11.701,4.839
			c3.257,3.257,4.837,7.084,4.837,11.705C66.539,54.621,64.957,58.452,61.702,61.705z M48.301,43.182h3.409V39.77h-3.409V43.182z
			 M48.301,60.223h3.409V46.59h-3.409V60.223z"/>
	</g>
</g>
<g display="none">
	<path display="inline" fill="#231F20" d="M49.173,49.065c-5.248,0-9.519-4.167-9.519-9.285c0-5.117,4.271-9.284,9.519-9.284
		s9.519,4.167,9.519,9.284C58.691,44.898,54.421,49.065,49.173,49.065z M49.173,33.23c-3.705,0-6.717,2.939-6.717,6.55
		c0,3.616,3.012,6.551,6.717,6.551s6.716-2.935,6.716-6.551C55.889,36.17,52.878,33.23,49.173,33.23z"/>
	<path display="inline" fill="#231F20" d="M56.066,50.905H43.93c-6.692,0-12.138,5.436-12.138,12.11v6.487h6.07h24.275h6.07v-6.487
		C68.208,56.341,62.762,50.905,56.066,50.905z M65.527,66.604h-6.209H40.682H34.47v-3.502c0-5.127,4.182-9.297,9.318-9.297H56.21
		c5.14,0,9.317,4.17,9.317,9.297V66.604z"/>
</g>
<g display="none">
	<path display="inline" fill="#231F20" d="M60.648,59.287c-0.238-0.188-0.553-0.264-0.862-0.246
		c3.075-2.934,4.993-7.059,4.993-11.625c0-8.874-7.241-16.094-16.146-16.094c-8.902,0-16.145,7.22-16.145,16.094
		c0,8.877,7.243,16.094,16.145,16.094c3.757,0,7.216-1.283,9.962-3.439c-0.066,0.318-0.029,0.656,0.127,0.929
		c0,0,4.389,7.644,7.182,7.681c0.767,0.01,1.607-0.697,1.604-1.433C67.51,64.465,60.648,59.287,60.648,59.287z M48.635,60.83
		c-7.418,0-13.455-6.02-13.455-13.415c0-7.388,6.037-13.406,13.455-13.406c7.42,0,13.456,6.019,13.456,13.406
		C62.091,54.813,56.055,60.83,48.635,60.83z"/>
</g>
<g display="none">
	<path display="inline" fill="#231F20" d="M41.327,31.723l6.632,8.907l-2.098,1.617c-2.387,1.837-2.861,5.313-1.056,7.745
		l4.372,5.874c1.068,1.442,2.695,2.188,4.339,2.188c1.146,0,2.299-0.367,3.277-1.115l2.096-1.623l6.635,8.912l-2.438,1.873
		c-1.914,1.471-4.326,2.174-6.771,2.174c-3.662,0-7.382-1.576-9.553-4.496L36.648,50.201c-3.617-4.863-2.533-12.935,2.241-16.604
		L41.327,31.723 M41.327,28.501c-0.688,0-1.362,0.224-1.918,0.651l-2.443,1.874c-6.184,4.752-7.54,14.827-2.855,21.123l10.11,13.578
		c2.688,3.615,7.21,5.771,12.085,5.771c3.235,0,6.317-1,8.684-2.824l2.439-1.869c1.396-1.078,1.676-3.094,0.618-4.516l-6.633-8.91
		c-0.513-0.672-1.265-1.121-2.095-1.257c-0.145-0.019-0.291-0.022-0.438-0.022c-0.688,0-1.361,0.225-1.916,0.664l-2.1,1.615
		c-0.498,0.385-1.014,0.465-1.361,0.465c-0.719,0-1.377-0.334-1.803-0.908l-4.37-5.875c-0.753-1.015-0.559-2.456,0.436-3.228
		l2.097-1.62c1.396-1.074,1.677-3.096,0.617-4.513l-6.632-8.907c-0.511-0.681-1.264-1.131-2.094-1.248
		C41.619,28.507,41.473,28.501,41.327,28.501L41.327,28.501z"/>
</g>
<g display="none">
	<path display="inline" fill="#231F20" d="M69.904,48.866L58.951,36.921c-0.281-0.305-0.65-0.475-1.047-0.475
		c-0.396,0-0.766,0.17-1.043,0.475c-0.576,0.624-0.576,1.643-0.002,2.271l8.442,9.209h-34.16c-0.813,0-1.478,0.711-1.478,1.596
		c0,0.889,0.664,1.598,1.478,1.598h34.161l-8.441,9.218c-0.575,0.621-0.575,1.643,0,2.271c0.277,0.303,0.65,0.472,1.043,0.472
		c0.396,0,0.767-0.166,1.048-0.47l10.952-11.949c0.271-0.293,0.429-0.705,0.433-1.135C70.336,49.587,70.186,49.184,69.904,48.866z"
		/>
</g>
<g>
	<path fill="#FFFFFF" d="M29.665,50.001c0.004,0.429,0.161,0.842,0.431,1.135L41.05,63.085c0.28,0.304,0.65,0.47,1.046,0.47
		c0.393,0,0.766-0.169,1.043-0.472c0.577-0.629,0.577-1.649,0-2.272l-8.44-9.217h34.16c0.813,0,1.478-0.708,1.478-1.597
		c0-0.885-0.664-1.596-1.478-1.596H34.698l8.442-9.209c0.575-0.629,0.575-1.647-0.002-2.271c-0.277-0.304-0.648-0.474-1.043-0.474
		c-0.396,0-0.766,0.17-1.046,0.474L30.095,48.866C29.814,49.183,29.665,49.586,29.665,50.001z"/>
</g>
</svg>
