<svg xmlns="http://www.w3.org/2000/svg" xmlns:xlink="http://www.w3.org/1999/xlink" x="0px" y="0px" viewBox="0 0 90 90" style="enable-background:new 0 0 90 90;" xml:space="preserve">
<g>
	<g>
		<polyline style="fill:none;stroke:#667179;stroke-width:3;stroke-linecap:square;stroke-miterlimit:10;" points="49.433,56.984     53.867,41.911 53.867,29.498   "></polyline>
		<polyline style="fill:none;stroke:#667179;stroke-width:3;stroke-linecap:square;stroke-miterlimit:10;" points="40.567,56.984     36.134,41.911 36.134,35.704   "></polyline>
		<polyline style="fill:none;stroke:#667179;stroke-width:3;stroke-linecap:square;stroke-miterlimit:10;" points="68.939,44.571     53.867,41.911 36.202,41.911 29.042,43.685   "></polyline>
		<path style="fill:none;stroke:#667179;stroke-width:3;stroke-linecap:square;stroke-miterlimit:10;" d="M54.018,29.498H35.981    c-0.471,0-0.921,0.188-1.253,0.52L21.366,43.379c-0.668,0.669-0.695,1.742-0.062,2.442l22.314,24.705    c0.739,0.819,2.023,0.819,2.764,0l22.314-24.705c0.632-0.701,0.604-1.774-0.063-2.442L55.272,30.018    C54.94,29.686,54.49,29.498,54.018,29.498z"></path>
	</g>
	<g>
		
			<line style="fill:none;stroke:#667179;stroke-width:3;stroke-linecap:square;stroke-miterlimit:10;" x1="40.879" y1="19.461" x2="39.293" y2="22.759"></line>
		
			<line style="fill:none;stroke:#667179;stroke-width:3;stroke-linecap:square;stroke-miterlimit:10;" x1="30.039" y1="18.859" x2="31.251" y2="22.314"></line>
		
			<line style="fill:none;stroke:#667179;stroke-width:3;stroke-linecap:square;stroke-miterlimit:10;" x1="25.248" y1="27.686" x2="21.947" y2="26.101"></line>
	</g>
</g>
</svg>