<svg xmlns="http://www.w3.org/2000/svg" xmlns:xlink="http://www.w3.org/1999/xlink" x="0px" y="0px" viewBox="0 0 90 90" style="enable-background:new 0 0 90 90;" xml:space="preserve">
<g>
	<g>
		<path style="fill:none;stroke:#667179;stroke-width:3;stroke-linejoin:round;stroke-miterlimit:10;" d="M44.997,62.94    c-9.891,0-17.938-8.049-17.938-17.939c0-9.892,8.046-17.94,17.938-17.94c9.895,0,17.943,8.049,17.943,17.94    C62.94,54.892,54.891,62.94,44.997,62.94z"></path>
		<path style="fill:none;stroke:#667179;stroke-width:3;stroke-linejoin:round;stroke-miterlimit:10;" d="M44.997,68.478    c-12.944,0-23.474-10.531-23.474-23.478c0-12.945,10.529-23.478,23.474-23.478c12.947,0,23.479,10.532,23.479,23.478    C68.477,57.946,57.944,68.478,44.997,68.478z"></path>
		<g>
			<path style="fill:#667179;stroke:#667179;stroke-miterlimit:10;" d="M46.197,53.528h-2.4c-1.313,0-2.55-0.51-3.482-1.438     c-0.935-0.945-1.443-2.183-1.443-3.492h2.658c0,0.606,0.237,1.18,0.667,1.615c0.422,0.419,0.995,0.655,1.601,0.655h2.4     c0.604,0,1.178-0.237,1.617-0.668c0.419-0.426,0.657-1,0.657-1.604c0-0.604-0.236-1.174-0.665-1.604     c-0.432-0.428-1.005-0.666-1.609-0.666h-2.4c-1.315,0-2.552-0.511-3.483-1.44c-0.934-0.939-1.442-2.176-1.442-3.487     c0-1.316,0.511-2.555,1.438-3.487c0.945-0.933,2.182-1.441,3.488-1.441h2.4c1.301,0,2.537,0.508,3.479,1.43     c0.942,0.949,1.454,2.188,1.454,3.5h-2.657c0-0.606-0.238-1.18-0.667-1.613c-0.43-0.419-1.006-0.657-1.607-0.657h-2.4     c-0.604,0-1.176,0.237-1.611,0.668c-0.419,0.421-0.656,0.994-0.656,1.603c0,0.606,0.236,1.179,0.666,1.608     c0.425,0.425,0.996,0.661,1.603,0.661h2.4c1.311,0,2.548,0.513,3.485,1.438c0.934,0.938,1.446,2.173,1.446,3.488     c0,1.307-0.51,2.543-1.437,3.481C48.74,53.021,47.504,53.528,46.197,53.528z"></path>
			<rect x="43.668" y="34.923" style="fill:#667179;stroke:#667179;stroke-miterlimit:10;" width="2.658" height="2.879"></rect>
			<rect x="43.668" y="52.199" style="fill:#667179;stroke:#667179;stroke-miterlimit:10;" width="2.658" height="2.881"></rect>
		</g>
	</g>
</g>
</svg>